<svg width="289" height="87" viewBox="0 0 289 87" fill="none" xmlns="http://www.w3.org/2000/svg">
<path d="M217.9 40.5V53.4C217.9 54.4 217.3 54.9 216.1 54.9C214.9 54.9 214.3 54.4 214.3 53.4V40.8C214.3 40.2 214.1 39.7 213.8 39.2C213.5 38.7 213 38.4 212.1 38.4H208.1C207.2 38.4 206.7 38.7 206.4 39.2C206.1 39.7 205.9 40.2 205.9 40.8V53.4C205.9 54.4 205.3 54.9 204.1 54.9C202.9 54.9 202.3 54.4 202.3 53.4V40.5C202.3 39.6 202.4 38.9 202.7 38.2C203 37.6 203.4 37 204 36.6C205.1 35.8 206.3 35.4 207.4 35.4H212.5C213.6 35.4 214.7 35.8 215.9 36.6C217.3 37.4 217.9 38.7 217.9 40.5Z" fill="black"/>
<path d="M198 29.5C198.5 30 198.7 30.6 198.7 31.3C198.7 32 198.5 32.6 198 33C197.5 33.5 197 33.7 196.3 33.7C195.6 33.7 195 33.5 194.5 33C194 32.5 193.8 31.9 193.8 31.3C193.8 30.6 194 30 194.5 29.5C195 29 195.6 28.8 196.3 28.8C197 28.8 197.5 29 198 29.5Z" fill="black"/>
<path d="M198 36.8V53.3C198 54.3 197.4 54.8 196.2 54.8C195 54.8 194.4 54.3 194.4 53.3V36.8C194.4 35.8 195 35.3 196.2 35.3C197.5 35.3 198 35.8 198 36.8Z" fill="black"/>
<path d="M190.4 40.5V49.6C190.4 51.4 189.8 52.6 188.7 53.5C187.6 54.3 186.4 54.7 185.3 54.7H180.2C179.6 54.7 179.1 54.6 178.5 54.4C177.9 54.2 177.4 53.9 176.8 53.5C175.7 52.7 175.1 51.4 175.1 49.6V40.5C175.1 39.6 175.2 38.9 175.5 38.3C175.8 37.6 176.2 37.1 176.8 36.7C177.3 36.3 177.9 36 178.5 35.8C179.1 35.6 179.7 35.5 180.2 35.5H185.3C185.9 35.5 186.4 35.6 187 35.8C187.6 36 188.2 36.3 188.7 36.7C189.3 37.1 189.7 37.6 190 38.3C190.2 38.9 190.4 39.6 190.4 40.5ZM186.9 49.5V40.5C186.9 40 186.7 39.5 186.4 39.1C186.1 38.6 185.5 38.4 184.7 38.4H180.7C179.9 38.4 179.3 38.6 179 39.1C178.7 39.5 178.5 40 178.5 40.5V49.5C178.5 50 178.7 50.5 179 50.9C179.3 51.3 179.9 51.6 180.7 51.6H184.7C185.5 51.6 186 51.4 186.4 50.9C186.7 50.5 186.9 50.1 186.9 49.5Z" fill="black"/>
<path d="M170.4 43V49.5C170.4 51.2 169.8 52.5 168.7 53.4C168.1 53.8 167.6 54.1 167 54.4C166.4 54.6 165.9 54.7 165.3 54.7H158.6C158 54.7 157.5 54.6 156.9 54.4C156.3 54.2 155.8 53.8 155.2 53.4C154.6 53 154.2 52.5 153.9 51.8C153.6 51.2 153.4 50.4 153.4 49.5V34.3C153.4 33.4 153.6 32.7 153.9 32C154.2 31.4 154.7 30.8 155.2 30.4C155.8 30 156.3 29.7 156.9 29.5C157.5 29.3 158.1 29.1 158.6 29.1H164.9C165.5 29.1 166 29.2 166.6 29.5C167.2 29.7 167.8 30 168.3 30.4C169.4 31.2 170 32.5 170 34.2V36.4C170 37.4 169.4 37.9 168.1 37.9C166.8 37.9 166.2 37.4 166.2 36.4V34.5C166.2 34 166 33.5 165.7 33C165.4 32.5 164.8 32.3 164 32.3H159.3C158.5 32.3 157.9 32.5 157.6 33C157.3 33.5 157.1 33.9 157.1 34.5V49.2C157.1 49.5 157.1 49.7 157.2 50C157.3 50.3 157.4 50.5 157.6 50.7C157.8 50.9 158 51.1 158.3 51.2C158.6 51.3 158.9 51.4 159.3 51.4H164.3C165.1 51.4 165.6 51.2 166 50.7C166.3 50.3 166.5 49.8 166.5 49.2V43C166.5 42 167.1 41.4 168.4 41.4C169.8 41.5 170.4 42 170.4 43Z" fill="black"/>
<path d="M164.9 41.7C165 42 165.1 42.4 165.1 42.7C165.1 43.1 165 43.4 164.9 43.8C164.8 44.1 164.6 44.4 164.3 44.6C164.1 44.8 163.8 45 163.5 45.2C163.2 45.3 162.8 45.4 162.4 45.4C161.7 45.4 161.1 45.1 160.5 44.6C160 44.1 159.7 43.5 159.7 42.7C159.7 42 160 41.4 160.5 40.9C161 40.4 161.6 40.1 162.4 40.1C162.8 40.1 163.1 40.2 163.5 40.3C163.8 40.4 164.1 40.6 164.3 40.8C164.5 41.1 164.7 41.4 164.9 41.7Z" fill="black"/>
<path d="M150.3 52.5C150.5 52.8 150.5 53.1 150.5 53.4C150.5 53.9 150.2 54.4 149.5 54.6C149.1 54.9 148.7 55 148.3 55C148.1 55 147.9 54.9 147.6 54.7C147.4 54.6 147.2 54.4 147.1 54.1L144 48C143.8 47.7 143.7 47.4 143.7 47C143.7 46.5 144 46 144.5 45.7C144.6 45.6 144.8 45.5 144.9 45.4C145.1 45.3 145.3 45.3 145.5 45.2C145.7 45.2 145.9 45.2 146.2 45.3C146.4 45.4 146.6 45.6 146.7 45.8L150.3 52.5Z" fill="black"/>
<path d="M150.2 36.8C150.2 37 150.2 37.1 150.1 37.3C150 37.5 149.9 37.6 149.8 37.8L139.6 49.4V53.5C139.6 54.5 139 55 137.8 55C136.6 55 136 54.5 136 53.5V30.6C136 29.6 136.6 29.1 137.8 29.1C139 29.1 139.6 29.6 139.6 30.6V44.2C140.1 43.6 140.7 42.9 141.4 42.2C142.1 41.5 142.7 40.7 143.4 40C144.1 39.2 144.7 38.5 145.3 37.8C145.9 37.1 146.5 36.4 147.1 35.7C147.5 35.3 147.9 35 148.3 35C148.5 35 148.7 35.1 148.9 35.2C149.1 35.3 149.3 35.4 149.6 35.6C150 35.9 150.2 36.3 150.2 36.8Z" fill="black"/>
<path d="M132.1 48.1V49.6C132.1 51.4 131.5 52.6 130.4 53.5C129.3 54.3 128.1 54.7 127 54.7H121.6C120.5 54.7 119.4 54.3 118.3 53.5C117.8 53.1 117.4 52.5 117.1 51.9C116.8 51.2 116.7 50.5 116.7 49.6V40.5C116.7 38.8 117.2 37.5 118.3 36.7C118.8 36.3 119.4 36 119.9 35.8C120.5 35.6 121 35.4 121.6 35.4H127C127.5 35.4 128.1 35.5 128.7 35.7C129.3 35.9 129.9 36.2 130.4 36.5C130.9 36.9 131.3 37.4 131.6 38C131.9 38.6 132.1 39.4 132.1 40.3V41.9C132.1 42.9 131.5 43.4 130.3 43.4C129.1 43.4 128.5 42.9 128.5 41.9V40.5C128.5 40 128.3 39.5 128 39.1C127.7 38.6 127.1 38.4 126.3 38.4H122.3C121.5 38.4 120.9 38.6 120.6 39.1C120.3 39.5 120.1 40 120.1 40.5V49.6C120.1 50.1 120.3 50.6 120.6 51C120.9 51.4 121.5 51.7 122.3 51.7H126.3C127.1 51.7 127.6 51.5 128 51C128.3 50.5 128.5 50.1 128.5 49.6V48.1C128.5 47.1 129.1 46.6 130.3 46.6C131.5 46.6 132.1 47.1 132.1 48.1Z" fill="black"/>
<path d="M112.5 40.5V53.3C112.5 54.3 111.9 54.8 110.7 54.8C110.5 54.8 110.2 54.8 110 54.8C109.8 54.8 109.6 54.7 109.4 54.6C109.3 54.5 109.1 54.3 109 54.2C108.9 54 108.9 53.8 108.9 53.5V46.5H102.4C101.9 46.5 101.6 46.6 101.3 46.7C101 46.8 100.8 47 100.7 47.2C100.5 47.6 100.4 47.9 100.3 48.1C100.2 48.3 100.2 48.5 100.2 48.8V50C100.2 50.6 100.4 51 100.7 51.3C101 51.6 101.6 51.7 102.4 51.7H106C106.8 51.7 107.2 52.2 107.2 53.2C107.2 53.6 107.1 54 106.9 54.3C106.7 54.6 106.4 54.7 106 54.7H102C101.3 54.7 100.7 54.6 100.1 54.4C99.5 54.2 98.9 53.9 98.4 53.6C97.4 52.9 96.8 51.7 96.8 50V48.4C96.8 47.5 97 46.8 97.2 46.1C97.5 45.4 98 44.9 98.5 44.5C99 44.1 99.6 43.9 100.2 43.7C100.8 43.5 101.4 43.4 101.9 43.4H109V40.4C109 39.9 108.8 39.4 108.5 39C108.2 38.5 107.6 38.3 106.8 38.3H103.1C102.3 38.3 101.7 38.5 101.4 38.9C101.1 39.3 101 39.7 101 40.3V40.6C101 41.7 100.4 42.3 99.2 42.3C98 42.3 97.4 41.7 97.4 40.6V40.3C97.4 39.4 97.5 38.7 97.8 38.1C98.1 37.5 98.6 37 99.1 36.6C99.7 36.2 100.2 35.9 100.8 35.7C101.4 35.5 102 35.4 102.6 35.4H107.5C108 35.4 108.6 35.5 109.2 35.7C109.8 35.9 110.4 36.2 110.9 36.6C111.5 37 111.9 37.5 112.2 38.2C112.4 38.9 112.5 39.6 112.5 40.5Z" fill="black"/>
<path d="M92.7 45V49.6C92.7 51.4 92 52.6 90.6 53.5C89.9 53.9 89.3 54.3 88.7 54.5C88.1 54.7 87.5 54.8 86.9 54.8H82.2C81.8 54.8 81.5 54.6 81.3 54.3C81.1 54 81 53.6 81 53.1C81 52 81.4 51.5 82.3 51.5H86.7C87.5 51.5 88 51.3 88.4 50.8C88.7 50.4 88.9 49.9 88.9 49.3V45.2C88.9 44.7 88.7 44.2 88.4 43.8C88 43.3 87.4 43.1 86.5 43C85.9 43.7 85.2 44.1 84.3 44.1C83.6 44.1 83 43.8 82.4 43.3C81.9 42.8 81.6 42.2 81.6 41.4C81.6 40.6 81.9 40 82.4 39.5C82.9 39 83.5 38.7 84.3 38.7C84.7 38.7 85.1 38.8 85.4 39C85.8 39.2 86.1 39.5 86.4 39.8C86.9 39.8 87.2 39.7 87.5 39.6C87.8 39.5 87.9 39.3 88.1 39.1C88.2 38.9 88.3 38.7 88.3 38.5C88.3 38.3 88.3 38 88.3 37.8V34.6C88.3 34.1 88.1 33.6 87.8 33.1C87.5 32.6 86.9 32.4 86.1 32.4H79.4V53V53.5C79.4 53.9 79.2 54.3 78.8 54.5C78.4 54.7 78 54.8 77.5 54.8C76.2 54.8 75.6 54.3 75.6 53.3V31.2C75.6 30.4 75.8 29.9 76.2 29.7C76.6 29.4 77.1 29.3 77.6 29.3H86.9C87.5 29.3 88 29.4 88.7 29.6C89.3 29.8 89.9 30.1 90.5 30.5C91.1 30.9 91.5 31.4 91.7 32.1C92 32.8 92.1 33.5 92.1 34.4V38C92.1 38.9 91.9 39.6 91.5 40.1C91.1 40.6 90.8 41.1 90.3 41.4C90.6 41.6 90.9 41.8 91.1 42C91.4 42.2 91.6 42.4 91.7 42.6C92 42.9 92.2 43.2 92.3 43.7C92.6 43.9 92.7 44.4 92.7 45Z" fill="black"/>
<path d="M3 1.70001H246.6" stroke="black" stroke-width="3"/>
<path d="M45.4 84.6H287.5H289" stroke="black" stroke-width="3"/>
<path d="M287.5 86.7V84.6V28.9" stroke="black" stroke-width="3"/>
<path d="M1.5 57.8V0" stroke="black" stroke-width="3"/>
</svg>
